<mxfile host="app.diagrams.net" modified="2022-10-25T14:54:05.978Z" agent="5.0 (Windows NT 10.0; Win64; x64) AppleWebKit/537.36 (KHTML, like Gecko) Chrome/106.0.0.0 Safari/537.36" etag="JoW-urigpPJWPmrsZVrg" version="20.5.0" type="github">
  <diagram id="9sFnLMpEkX3xwLgNQpGo" name="Page-1">
    <mxGraphModel dx="3298" dy="1824" grid="1" gridSize="10" guides="1" tooltips="1" connect="1" arrows="1" fold="1" page="1" pageScale="1" pageWidth="850" pageHeight="1100" math="0" shadow="0">
      <root>
        <mxCell id="0" />
        <mxCell id="1" parent="0" />
        <mxCell id="EZXSfr5UPJ4AgPNX8Fhg-16" style="rounded=0;orthogonalLoop=1;jettySize=auto;html=1;" edge="1" parent="1" source="EZXSfr5UPJ4AgPNX8Fhg-1" target="EZXSfr5UPJ4AgPNX8Fhg-10">
          <mxGeometry relative="1" as="geometry" />
        </mxCell>
        <mxCell id="EZXSfr5UPJ4AgPNX8Fhg-27" style="edgeStyle=none;rounded=0;orthogonalLoop=1;jettySize=auto;html=1;entryX=0;entryY=0.5;entryDx=0;entryDy=0;" edge="1" parent="1" source="EZXSfr5UPJ4AgPNX8Fhg-1" target="EZXSfr5UPJ4AgPNX8Fhg-23">
          <mxGeometry relative="1" as="geometry" />
        </mxCell>
        <mxCell id="EZXSfr5UPJ4AgPNX8Fhg-34" style="edgeStyle=none;rounded=0;orthogonalLoop=1;jettySize=auto;html=1;entryX=0;entryY=0.5;entryDx=0;entryDy=0;fontSize=12;" edge="1" parent="1" source="EZXSfr5UPJ4AgPNX8Fhg-1" target="EZXSfr5UPJ4AgPNX8Fhg-33">
          <mxGeometry relative="1" as="geometry" />
        </mxCell>
        <mxCell id="EZXSfr5UPJ4AgPNX8Fhg-1" value="Người học&amp;nbsp;" style="shape=umlActor;verticalLabelPosition=bottom;verticalAlign=top;html=1;outlineConnect=0;" vertex="1" parent="1">
          <mxGeometry x="280" y="130" width="30" height="60" as="geometry" />
        </mxCell>
        <mxCell id="EZXSfr5UPJ4AgPNX8Fhg-19" style="rounded=0;orthogonalLoop=1;jettySize=auto;html=1;entryX=0;entryY=0.5;entryDx=0;entryDy=0;" edge="1" parent="1" source="EZXSfr5UPJ4AgPNX8Fhg-3" target="EZXSfr5UPJ4AgPNX8Fhg-18">
          <mxGeometry relative="1" as="geometry" />
        </mxCell>
        <mxCell id="EZXSfr5UPJ4AgPNX8Fhg-20" style="rounded=0;orthogonalLoop=1;jettySize=auto;html=1;entryX=0.017;entryY=0.418;entryDx=0;entryDy=0;entryPerimeter=0;" edge="1" parent="1" source="EZXSfr5UPJ4AgPNX8Fhg-3" target="EZXSfr5UPJ4AgPNX8Fhg-13">
          <mxGeometry relative="1" as="geometry" />
        </mxCell>
        <mxCell id="EZXSfr5UPJ4AgPNX8Fhg-21" style="rounded=0;orthogonalLoop=1;jettySize=auto;html=1;entryX=0;entryY=0.5;entryDx=0;entryDy=0;" edge="1" parent="1" source="EZXSfr5UPJ4AgPNX8Fhg-3" target="EZXSfr5UPJ4AgPNX8Fhg-5">
          <mxGeometry relative="1" as="geometry" />
        </mxCell>
        <mxCell id="EZXSfr5UPJ4AgPNX8Fhg-3" value="Người dạy" style="shape=umlActor;verticalLabelPosition=bottom;verticalAlign=top;html=1;outlineConnect=0;" vertex="1" parent="1">
          <mxGeometry x="395" y="630" width="30" height="60" as="geometry" />
        </mxCell>
        <mxCell id="EZXSfr5UPJ4AgPNX8Fhg-28" style="edgeStyle=none;rounded=0;orthogonalLoop=1;jettySize=auto;html=1;entryX=1;entryY=0.5;entryDx=0;entryDy=0;fontSize=12;" edge="1" parent="1" source="EZXSfr5UPJ4AgPNX8Fhg-6" target="EZXSfr5UPJ4AgPNX8Fhg-11">
          <mxGeometry relative="1" as="geometry" />
        </mxCell>
        <mxCell id="EZXSfr5UPJ4AgPNX8Fhg-29" style="edgeStyle=none;rounded=0;orthogonalLoop=1;jettySize=auto;html=1;entryX=1;entryY=0.5;entryDx=0;entryDy=0;fontSize=12;" edge="1" parent="1" source="EZXSfr5UPJ4AgPNX8Fhg-6" target="EZXSfr5UPJ4AgPNX8Fhg-12">
          <mxGeometry relative="1" as="geometry" />
        </mxCell>
        <mxCell id="EZXSfr5UPJ4AgPNX8Fhg-6" value="Người quản lý" style="shape=umlActor;verticalLabelPosition=bottom;verticalAlign=top;html=1;outlineConnect=0;" vertex="1" parent="1">
          <mxGeometry x="1580" y="150" width="30" height="60" as="geometry" />
        </mxCell>
        <mxCell id="EZXSfr5UPJ4AgPNX8Fhg-30" style="edgeStyle=none;rounded=0;orthogonalLoop=1;jettySize=auto;html=1;fontSize=12;" edge="1" parent="1" source="EZXSfr5UPJ4AgPNX8Fhg-7" target="EZXSfr5UPJ4AgPNX8Fhg-14">
          <mxGeometry relative="1" as="geometry" />
        </mxCell>
        <mxCell id="EZXSfr5UPJ4AgPNX8Fhg-7" value="Khách" style="shape=umlActor;verticalLabelPosition=bottom;verticalAlign=top;html=1;outlineConnect=0;" vertex="1" parent="1">
          <mxGeometry x="1600" y="410" width="30" height="60" as="geometry" />
        </mxCell>
        <mxCell id="EZXSfr5UPJ4AgPNX8Fhg-8" value="&#xa;&lt;b id=&quot;docs-internal-guid-c53052c6-7fff-33ee-c1e0-3ec148c205f4&quot; style=&quot;font-weight:normal;&quot;&gt;&lt;p style=&quot;line-height:1.284;text-indent: 27pt;text-align: justify;margin-top:12pt;margin-bottom:12pt;&quot; dir=&quot;ltr&quot;&gt;&lt;span style=&quot;font-size: 14pt; font-family: &amp;quot;Times New Roman&amp;quot;; color: rgb(0, 0, 0); background-color: transparent; font-weight: 400; font-style: normal; font-variant: normal; text-decoration: none; vertical-align: baseline;&quot;&gt;Người dùng sẽ được sử dụng các chức năng của hệ thống như tham gia vào lớp học, trao đổi thông tin trong lớp học, gửi file liên kết từ máy tính, …&lt;/span&gt;&lt;/p&gt;&lt;p style=&quot;line-height:1.284;text-indent: 27pt;text-align: justify;margin-top:12pt;margin-bottom:12pt;&quot; dir=&quot;ltr&quot;&gt;&lt;span style=&quot;font-size: 14pt; font-family: &amp;quot;Courier New&amp;quot;; color: rgb(0, 0, 0); background-color: transparent; font-weight: 400; font-style: normal; font-variant: normal; text-decoration: none; vertical-align: baseline;&quot;&gt;-&lt;/span&gt;&lt;span style=&quot;font-size: 7pt; font-family: &amp;quot;Times New Roman&amp;quot;; color: rgb(0, 0, 0); background-color: transparent; font-weight: 400; font-style: normal; font-variant: normal; text-decoration: none; vertical-align: baseline;&quot;&gt; &lt;/span&gt;&lt;span style=&quot;font-size: 14pt; font-family: &amp;quot;Times New Roman&amp;quot;; color: rgb(0, 0, 0); background-color: transparent; font-weight: 400; font-style: normal; font-variant: normal; text-decoration: none; vertical-align: baseline;&quot;&gt;Người học đóng vai trò của người dùng khi đăng nhập vào hệ thống thông qua xác minh thông tin đã đăng ký, được phép truy cập vào lớp học.&lt;/span&gt;&lt;/p&gt;&lt;p style=&quot;line-height:1.284;text-indent: 27pt;text-align: justify;margin-top:12pt;margin-bottom:12pt;&quot; dir=&quot;ltr&quot;&gt;&lt;span style=&quot;font-size: 14pt; font-family: &amp;quot;Times New Roman&amp;quot;; color: rgb(0, 0, 0); background-color: transparent; font-weight: 400; font-style: normal; font-variant: normal; text-decoration: none; vertical-align: baseline;&quot;&gt;- Người dạy đóng vai trò của người dùng khi đăng nhập vào hệ thống, được phép đăng ký mở lớp học, quản lý các lớp học.&lt;/span&gt;&lt;/p&gt;&lt;p style=&quot;line-height:1.284;text-indent: 27pt;text-align: justify;margin-top:12pt;margin-bottom:12pt;&quot; dir=&quot;ltr&quot;&gt;&lt;span style=&quot;font-size: 14pt; font-family: &amp;quot;Courier New&amp;quot;; color: rgb(0, 0, 0); background-color: transparent; font-weight: 400; font-style: normal; font-variant: normal; text-decoration: none; vertical-align: baseline;&quot;&gt;-&lt;/span&gt;&lt;span style=&quot;font-size: 7pt; font-family: &amp;quot;Times New Roman&amp;quot;; color: rgb(0, 0, 0); background-color: transparent; font-weight: 400; font-style: normal; font-variant: normal; text-decoration: none; vertical-align: baseline;&quot;&gt; &lt;/span&gt;&lt;span style=&quot;font-size: 14pt; font-family: &amp;quot;Times New Roman&amp;quot;; color: rgb(0, 0, 0); background-color: transparent; font-weight: 400; font-style: normal; font-variant: normal; text-decoration: none; vertical-align: baseline;&quot;&gt;Khách đóng vai trò của người dùng, người học, người dạy khi chưa đăng nhập vào hệ thống, được quyền đăng ký tài khoản.&lt;/span&gt;&lt;/p&gt;&lt;p style=&quot;line-height:1.284;text-indent: 27pt;text-align: justify;margin-top:12pt;margin-bottom:12pt;&quot; dir=&quot;ltr&quot;&gt;&lt;span style=&quot;font-size: 14pt; font-family: &amp;quot;Courier New&amp;quot;; color: rgb(0, 0, 0); background-color: transparent; font-weight: 400; font-style: normal; font-variant: normal; text-decoration: none; vertical-align: baseline;&quot;&gt;-&lt;/span&gt;&lt;span style=&quot;font-size: 7pt; font-family: &amp;quot;Times New Roman&amp;quot;; color: rgb(0, 0, 0); background-color: transparent; font-weight: 400; font-style: normal; font-variant: normal; text-decoration: none; vertical-align: baseline;&quot;&gt; &lt;/span&gt;&lt;span style=&quot;font-size: 14pt; font-family: &amp;quot;Times New Roman&amp;quot;; color: rgb(0, 0, 0); background-color: transparent; font-weight: 400; font-style: normal; font-variant: normal; text-decoration: none; vertical-align: baseline;&quot;&gt;Người quản lý đóng vai trò quản lý tài khoản người dùng, người học, người dạy, xem xét việc mở lớp của người dạy.&lt;/span&gt;&lt;/p&gt;&lt;/b&gt;&lt;br class=&quot;Apple-interchange-newline&quot;&gt;&#xa;&#xa;" style="text;html=1;strokeColor=none;fillColor=none;align=center;verticalAlign=middle;whiteSpace=wrap;rounded=0;" vertex="1" parent="1">
          <mxGeometry x="60" y="-300" width="950" height="260" as="geometry" />
        </mxCell>
        <mxCell id="EZXSfr5UPJ4AgPNX8Fhg-17" value="&#xa;&#xa;" style="swimlane;startSize=0;" vertex="1" parent="1">
          <mxGeometry x="505" y="20" width="815" height="840" as="geometry" />
        </mxCell>
        <mxCell id="EZXSfr5UPJ4AgPNX8Fhg-18" value="Tạo lớp học&amp;nbsp;" style="ellipse;whiteSpace=wrap;html=1;" vertex="1" parent="EZXSfr5UPJ4AgPNX8Fhg-17">
          <mxGeometry x="215" y="540" width="120" height="80" as="geometry" />
        </mxCell>
        <mxCell id="EZXSfr5UPJ4AgPNX8Fhg-23" value="&lt;font style=&quot;font-size: 12px;&quot;&gt;&lt;br&gt;&lt;b id=&quot;docs-internal-guid-def37bf5-7fff-e7cd-ad57-8ef27c446c35&quot; style=&quot;font-weight: normal;&quot;&gt;&lt;span style=&quot;font-family: &amp;quot;Times New Roman&amp;quot;; color: rgb(0, 0, 0); background-color: transparent; font-weight: 400; font-style: normal; font-variant: normal; text-decoration: none; vertical-align: baseline;&quot;&gt;Gửi file liên kết từ máy tính&lt;/span&gt;&lt;/b&gt;&lt;br&gt;&lt;/font&gt;" style="ellipse;whiteSpace=wrap;html=1;" vertex="1" parent="EZXSfr5UPJ4AgPNX8Fhg-17">
          <mxGeometry x="130" y="110" width="120" height="80" as="geometry" />
        </mxCell>
        <mxCell id="EZXSfr5UPJ4AgPNX8Fhg-33" value="Đăng nhập vào lớp học" style="ellipse;whiteSpace=wrap;html=1;fontSize=12;" vertex="1" parent="EZXSfr5UPJ4AgPNX8Fhg-17">
          <mxGeometry x="60" y="190" width="120" height="80" as="geometry" />
        </mxCell>
        <mxCell id="EZXSfr5UPJ4AgPNX8Fhg-5" value="Đăng ký mở lớp học" style="ellipse;whiteSpace=wrap;html=1;" vertex="1" parent="EZXSfr5UPJ4AgPNX8Fhg-17">
          <mxGeometry x="175" y="720" width="120" height="80" as="geometry" />
        </mxCell>
        <mxCell id="EZXSfr5UPJ4AgPNX8Fhg-13" value="Quản lý lớp học&amp;nbsp;" style="ellipse;whiteSpace=wrap;html=1;" vertex="1" parent="EZXSfr5UPJ4AgPNX8Fhg-17">
          <mxGeometry x="195" y="620" width="120" height="80" as="geometry" />
        </mxCell>
        <mxCell id="EZXSfr5UPJ4AgPNX8Fhg-39" value="Tìm kiếm lớp" style="ellipse;whiteSpace=wrap;html=1;fontSize=12;" vertex="1" parent="EZXSfr5UPJ4AgPNX8Fhg-17">
          <mxGeometry x="10" y="280" width="120" height="80" as="geometry" />
        </mxCell>
        <mxCell id="EZXSfr5UPJ4AgPNX8Fhg-48" style="edgeStyle=none;rounded=0;orthogonalLoop=1;jettySize=auto;html=1;entryX=1;entryY=0.5;entryDx=0;entryDy=0;fontSize=12;startArrow=none;" edge="1" parent="EZXSfr5UPJ4AgPNX8Fhg-17" source="EZXSfr5UPJ4AgPNX8Fhg-51" target="EZXSfr5UPJ4AgPNX8Fhg-42">
          <mxGeometry relative="1" as="geometry" />
        </mxCell>
        <mxCell id="EZXSfr5UPJ4AgPNX8Fhg-40" value="Tham gia lớp học&amp;nbsp;" style="ellipse;whiteSpace=wrap;html=1;fontSize=12;" vertex="1" parent="EZXSfr5UPJ4AgPNX8Fhg-17">
          <mxGeometry x="635" y="300" width="120" height="80" as="geometry" />
        </mxCell>
        <mxCell id="EZXSfr5UPJ4AgPNX8Fhg-47" style="edgeStyle=none;rounded=0;orthogonalLoop=1;jettySize=auto;html=1;entryX=1;entryY=0.5;entryDx=0;entryDy=0;fontSize=12;" edge="1" parent="EZXSfr5UPJ4AgPNX8Fhg-17" source="EZXSfr5UPJ4AgPNX8Fhg-41" target="EZXSfr5UPJ4AgPNX8Fhg-43">
          <mxGeometry relative="1" as="geometry" />
        </mxCell>
        <mxCell id="EZXSfr5UPJ4AgPNX8Fhg-41" value="Xem thông tin người dùng" style="ellipse;whiteSpace=wrap;html=1;fontSize=12;" vertex="1" parent="EZXSfr5UPJ4AgPNX8Fhg-17">
          <mxGeometry x="405" y="405" width="120" height="80" as="geometry" />
        </mxCell>
        <mxCell id="EZXSfr5UPJ4AgPNX8Fhg-46" style="edgeStyle=none;rounded=0;orthogonalLoop=1;jettySize=auto;html=1;fontSize=12;" edge="1" parent="EZXSfr5UPJ4AgPNX8Fhg-17" source="EZXSfr5UPJ4AgPNX8Fhg-42" target="EZXSfr5UPJ4AgPNX8Fhg-39">
          <mxGeometry relative="1" as="geometry" />
        </mxCell>
        <mxCell id="EZXSfr5UPJ4AgPNX8Fhg-42" value="Xem thông tin lớp" style="ellipse;whiteSpace=wrap;html=1;fontSize=12;" vertex="1" parent="EZXSfr5UPJ4AgPNX8Fhg-17">
          <mxGeometry x="375" y="270" width="120" height="80" as="geometry" />
        </mxCell>
        <mxCell id="EZXSfr5UPJ4AgPNX8Fhg-43" value="Tìm kiếm người dùng" style="ellipse;whiteSpace=wrap;html=1;fontSize=12;" vertex="1" parent="EZXSfr5UPJ4AgPNX8Fhg-17">
          <mxGeometry x="125" y="420" width="125" height="80" as="geometry" />
        </mxCell>
        <mxCell id="EZXSfr5UPJ4AgPNX8Fhg-49" value="&amp;lt;&amp;lt;extend&amp;gt;&amp;gt;" style="text;html=1;strokeColor=none;fillColor=none;align=center;verticalAlign=middle;whiteSpace=wrap;rounded=0;fontSize=12;" vertex="1" parent="EZXSfr5UPJ4AgPNX8Fhg-17">
          <mxGeometry x="265" y="295" width="60" height="30" as="geometry" />
        </mxCell>
        <mxCell id="EZXSfr5UPJ4AgPNX8Fhg-52" value="&amp;lt;&amp;lt;extend&amp;gt;&amp;gt;" style="text;html=1;strokeColor=none;fillColor=none;align=center;verticalAlign=middle;whiteSpace=wrap;rounded=0;fontSize=12;" vertex="1" parent="EZXSfr5UPJ4AgPNX8Fhg-17">
          <mxGeometry x="305" y="445" width="60" height="30" as="geometry" />
        </mxCell>
        <mxCell id="EZXSfr5UPJ4AgPNX8Fhg-11" value="Quản lý tài khoản" style="ellipse;whiteSpace=wrap;html=1;" vertex="1" parent="EZXSfr5UPJ4AgPNX8Fhg-17">
          <mxGeometry x="605" y="40" width="120" height="80" as="geometry" />
        </mxCell>
        <mxCell id="EZXSfr5UPJ4AgPNX8Fhg-12" value="Xem xét tạo lớp học" style="ellipse;whiteSpace=wrap;html=1;" vertex="1" parent="EZXSfr5UPJ4AgPNX8Fhg-17">
          <mxGeometry x="695" y="160" width="120" height="80" as="geometry" />
        </mxCell>
        <mxCell id="EZXSfr5UPJ4AgPNX8Fhg-10" value="Tham gia lớp học" style="ellipse;whiteSpace=wrap;html=1;" vertex="1" parent="EZXSfr5UPJ4AgPNX8Fhg-17">
          <mxGeometry x="115" y="10" width="120" height="80" as="geometry" />
        </mxCell>
        <mxCell id="EZXSfr5UPJ4AgPNX8Fhg-14" value="Đăng ký / Đăng nhập" style="ellipse;whiteSpace=wrap;html=1;" vertex="1" parent="EZXSfr5UPJ4AgPNX8Fhg-17">
          <mxGeometry x="625" y="450" width="120" height="80" as="geometry" />
        </mxCell>
        <mxCell id="EZXSfr5UPJ4AgPNX8Fhg-51" value="&amp;lt;&amp;lt;extend&amp;gt;&amp;gt;" style="text;html=1;strokeColor=none;fillColor=none;align=center;verticalAlign=middle;whiteSpace=wrap;rounded=0;fontSize=12;" vertex="1" parent="EZXSfr5UPJ4AgPNX8Fhg-17">
          <mxGeometry x="555" y="305" width="60" height="30" as="geometry" />
        </mxCell>
        <mxCell id="EZXSfr5UPJ4AgPNX8Fhg-95" value="" style="edgeStyle=none;rounded=0;orthogonalLoop=1;jettySize=auto;html=1;entryX=1;entryY=0.5;entryDx=0;entryDy=0;fontSize=12;endArrow=none;" edge="1" parent="EZXSfr5UPJ4AgPNX8Fhg-17" source="EZXSfr5UPJ4AgPNX8Fhg-40" target="EZXSfr5UPJ4AgPNX8Fhg-51">
          <mxGeometry relative="1" as="geometry">
            <mxPoint x="1141.4634146341396" y="351.21951219512084" as="sourcePoint" />
            <mxPoint x="1000" y="330" as="targetPoint" />
          </mxGeometry>
        </mxCell>
        <mxCell id="EZXSfr5UPJ4AgPNX8Fhg-44" style="edgeStyle=none;rounded=0;orthogonalLoop=1;jettySize=auto;html=1;fontSize=12;" edge="1" parent="1" source="EZXSfr5UPJ4AgPNX8Fhg-35" target="EZXSfr5UPJ4AgPNX8Fhg-39">
          <mxGeometry relative="1" as="geometry" />
        </mxCell>
        <mxCell id="EZXSfr5UPJ4AgPNX8Fhg-45" style="edgeStyle=none;rounded=0;orthogonalLoop=1;jettySize=auto;html=1;fontSize=12;" edge="1" parent="1" source="EZXSfr5UPJ4AgPNX8Fhg-35" target="EZXSfr5UPJ4AgPNX8Fhg-43">
          <mxGeometry relative="1" as="geometry" />
        </mxCell>
        <mxCell id="EZXSfr5UPJ4AgPNX8Fhg-35" value="Người dùng" style="shape=umlActor;verticalLabelPosition=bottom;verticalAlign=top;html=1;outlineConnect=0;" vertex="1" parent="1">
          <mxGeometry x="290" y="380" width="30" height="60" as="geometry" />
        </mxCell>
        <mxCell id="EZXSfr5UPJ4AgPNX8Fhg-68" style="edgeStyle=none;rounded=0;orthogonalLoop=1;jettySize=auto;html=1;entryX=0.1;entryY=0.787;entryDx=0;entryDy=0;entryPerimeter=0;fontSize=14;" edge="1" parent="1" source="EZXSfr5UPJ4AgPNX8Fhg-53" target="EZXSfr5UPJ4AgPNX8Fhg-55">
          <mxGeometry relative="1" as="geometry" />
        </mxCell>
        <mxCell id="EZXSfr5UPJ4AgPNX8Fhg-69" style="edgeStyle=none;rounded=0;orthogonalLoop=1;jettySize=auto;html=1;entryX=0;entryY=0.5;entryDx=0;entryDy=0;fontSize=14;" edge="1" parent="1" source="EZXSfr5UPJ4AgPNX8Fhg-53" target="EZXSfr5UPJ4AgPNX8Fhg-64">
          <mxGeometry relative="1" as="geometry" />
        </mxCell>
        <mxCell id="EZXSfr5UPJ4AgPNX8Fhg-70" style="edgeStyle=none;rounded=0;orthogonalLoop=1;jettySize=auto;html=1;entryX=0.078;entryY=0.18;entryDx=0;entryDy=0;entryPerimeter=0;fontSize=14;" edge="1" parent="1" source="EZXSfr5UPJ4AgPNX8Fhg-53" target="EZXSfr5UPJ4AgPNX8Fhg-65">
          <mxGeometry relative="1" as="geometry" />
        </mxCell>
        <mxCell id="EZXSfr5UPJ4AgPNX8Fhg-71" style="edgeStyle=none;rounded=0;orthogonalLoop=1;jettySize=auto;html=1;fontSize=14;" edge="1" parent="1" source="EZXSfr5UPJ4AgPNX8Fhg-53" target="EZXSfr5UPJ4AgPNX8Fhg-66">
          <mxGeometry relative="1" as="geometry" />
        </mxCell>
        <mxCell id="EZXSfr5UPJ4AgPNX8Fhg-72" style="edgeStyle=none;rounded=0;orthogonalLoop=1;jettySize=auto;html=1;fontSize=14;" edge="1" parent="1" source="EZXSfr5UPJ4AgPNX8Fhg-53" target="EZXSfr5UPJ4AgPNX8Fhg-67">
          <mxGeometry relative="1" as="geometry" />
        </mxCell>
        <mxCell id="EZXSfr5UPJ4AgPNX8Fhg-53" value="Người dạy" style="shape=umlActor;verticalLabelPosition=bottom;verticalAlign=top;html=1;outlineConnect=0;fontSize=12;" vertex="1" parent="1">
          <mxGeometry x="-110" y="1200" width="80" height="150" as="geometry" />
        </mxCell>
        <mxCell id="EZXSfr5UPJ4AgPNX8Fhg-54" value="" style="swimlane;startSize=0;fontSize=12;" vertex="1" parent="1">
          <mxGeometry x="60" y="1000" width="930" height="1060" as="geometry" />
        </mxCell>
        <mxCell id="EZXSfr5UPJ4AgPNX8Fhg-55" value="Chỉnh sửa thông tin lớp học&amp;nbsp;" style="ellipse;whiteSpace=wrap;html=1;fontSize=12;" vertex="1" parent="EZXSfr5UPJ4AgPNX8Fhg-54">
          <mxGeometry x="120" width="255" height="140" as="geometry" />
        </mxCell>
        <mxCell id="EZXSfr5UPJ4AgPNX8Fhg-64" value="Xoá lớp học" style="ellipse;whiteSpace=wrap;html=1;fontSize=12;" vertex="1" parent="EZXSfr5UPJ4AgPNX8Fhg-54">
          <mxGeometry x="220" y="180" width="255" height="140" as="geometry" />
        </mxCell>
        <mxCell id="EZXSfr5UPJ4AgPNX8Fhg-65" value="Xoá người học&amp;nbsp;" style="ellipse;whiteSpace=wrap;html=1;fontSize=12;" vertex="1" parent="EZXSfr5UPJ4AgPNX8Fhg-54">
          <mxGeometry x="90" y="390" width="255" height="140" as="geometry" />
        </mxCell>
        <mxCell id="EZXSfr5UPJ4AgPNX8Fhg-66" value="Thêm người học&amp;nbsp;" style="ellipse;whiteSpace=wrap;html=1;fontSize=12;" vertex="1" parent="EZXSfr5UPJ4AgPNX8Fhg-54">
          <mxGeometry x="420" y="360" width="255" height="140" as="geometry" />
        </mxCell>
        <mxCell id="EZXSfr5UPJ4AgPNX8Fhg-67" value="&lt;font style=&quot;font-size: 14px;&quot;&gt;Chấp nhận/ Từ chối cho người&amp;nbsp; tham gia&lt;/font&gt;" style="ellipse;whiteSpace=wrap;html=1;fontSize=12;" vertex="1" parent="EZXSfr5UPJ4AgPNX8Fhg-54">
          <mxGeometry x="190" y="630" width="255" height="140" as="geometry" />
        </mxCell>
        <mxCell id="EZXSfr5UPJ4AgPNX8Fhg-75" value="Người học&amp;nbsp;" style="shape=umlActor;verticalLabelPosition=bottom;verticalAlign=top;html=1;outlineConnect=0;fontSize=14;" vertex="1" parent="1">
          <mxGeometry x="-1070" y="130" width="30" height="60" as="geometry" />
        </mxCell>
        <mxCell id="EZXSfr5UPJ4AgPNX8Fhg-76" value="Người dùng" style="shape=umlActor;verticalLabelPosition=bottom;verticalAlign=top;html=1;outlineConnect=0;fontSize=14;" vertex="1" parent="1">
          <mxGeometry x="-1090" y="300" width="30" height="60" as="geometry" />
        </mxCell>
        <mxCell id="EZXSfr5UPJ4AgPNX8Fhg-77" value="Người dạy" style="shape=umlActor;verticalLabelPosition=bottom;verticalAlign=top;html=1;outlineConnect=0;fontSize=14;" vertex="1" parent="1">
          <mxGeometry x="-1090" y="520" width="30" height="60" as="geometry" />
        </mxCell>
        <mxCell id="EZXSfr5UPJ4AgPNX8Fhg-90" value="" style="swimlane;startSize=0;fontSize=14;" vertex="1" parent="1">
          <mxGeometry x="-1000" y="60" width="680" height="730" as="geometry" />
        </mxCell>
      </root>
    </mxGraphModel>
  </diagram>
</mxfile>
